<svg xmlns="http://www.w3.org/2000/svg" width="640" height="366" viewBox="0 0 640 366" version="1.1"><path d="M 317.728 78.250 C 315.264 82.237, 304.344 101.025, 293.460 120 C 282.577 138.975, 268.514 163.275, 262.210 174 C 255.905 184.725, 250.506 193.912, 250.212 194.415 C 249.918 194.918, 255.488 190.592, 262.589 184.802 C 294.236 158.994, 319.799 142.645, 337.389 136.962 C 344.307 134.728, 353.721 134.025, 357.915 135.430 L 360.331 136.240 357.826 131.870 C 356.448 129.466, 348.161 114.788, 339.411 99.251 C 330.660 83.714, 323.209 71.001, 322.854 71.001 C 322.498 71, 320.191 74.263, 317.728 78.250 M 73.856 271.516 C 70.239 273.481, 69 277.725, 69 288.149 C 69 296.923, 69.022 297, 71.500 297 C 73.864 297, 74 296.700, 74 291.500 L 74 286 84.500 286 L 95 286 95 291.500 C 95 296.333, 95.242 297, 97 297 C 98.878 297, 98.998 296.344, 98.968 286.250 C 98.934 274.631, 98.296 272.824, 93.603 271.039 C 89.589 269.513, 76.983 269.818, 73.856 271.516 M 130 283.500 C 130 296.333, 130.099 297, 132 297 C 133.901 297, 134 296.333, 134 283.500 C 134 270.667, 133.901 270, 132 270 C 130.099 270, 130 270.667, 130 283.500 M 141.223 271.557 C 139.441 272.804, 139 274.084, 139 278 C 139 284.932, 140.841 286, 152.786 286 L 162.127 286 161.813 289.250 L 161.500 292.500 150.250 292.783 C 139.825 293.045, 139 293.210, 139 295.033 C 139 296.879, 139.733 297, 150.929 297 C 164.971 297, 166 296.459, 166 289.084 C 166 282.107, 164.486 281.144, 152.966 280.790 C 143.613 280.503, 143.500 280.470, 143.500 278 L 143.500 275.500 154.750 275.217 C 165.967 274.935, 166 274.927, 166 272.467 L 166 270 154.723 270 C 146.134 270, 142.915 270.371, 141.223 271.557 M 184.337 271.182 C 181.467 272.570, 181.030 274.617, 181.014 286.750 L 181 297 183.500 297 C 185.796 297, 186 296.633, 186 292.500 L 186 288 195.777 288 C 206.571 288, 209.097 287.029, 210.768 282.235 C 212.100 278.413, 210.205 272.908, 207 271.291 C 203.968 269.761, 187.438 269.682, 184.337 271.182 M 220 270.694 C 216.644 271.894, 216 274.307, 216 285.691 L 216 297 229 297 C 241.333 297, 242 296.897, 242 295 C 242 293.127, 241.333 293, 231.500 293 L 221 293 221 289.535 L 221 286.070 231.250 285.785 C 241.018 285.513, 241.515 285.394, 241.820 283.250 C 242.134 281.038, 241.959 281, 231.570 281 L 221 281 221 278 L 221 275 231.500 275 L 242 275 242 272.500 L 242 270 231.750 270.079 C 226.113 270.122, 220.825 270.399, 220 270.694 M 251.400 271.428 C 247.418 273.161, 246.857 274.696, 246.435 285 C 246.026 295.003, 246.464 297, 249.067 297 C 250.846 297, 251 296.219, 251 287.200 C 251 280.911, 251.430 276.970, 252.200 276.200 C 253.813 274.587, 269.187 274.587, 270.800 276.200 C 271.570 276.970, 272 280.911, 272 287.200 C 272 296.987, 272.003 297, 274.500 297 C 276.990 297, 277 296.964, 277 287.547 C 277 276.980, 275.894 273.514, 271.855 271.425 C 268.342 269.608, 255.576 269.610, 251.400 271.428 M 284.337 271.165 C 280.178 273.209, 279.756 280.876, 283.635 283.927 C 285.850 285.670, 287.680 286, 295.135 286 L 304 286 304 289.500 L 304 293 292.500 293 C 281.667 293, 281 293.116, 281 295 C 281 296.889, 281.667 297, 293 297 C 307.045 297, 309 296.023, 309 289 C 309 282.310, 306.790 281, 295.500 281 L 286 281 286 278 L 286 275 297.570 275 C 308.996 275, 309.135 274.972, 308.820 272.750 C 308.512 270.587, 308.077 270.492, 297.500 270.301 C 291.319 270.189, 285.552 270.568, 284.337 271.165 M 313.667 270.667 C 313.300 271.033, 313 277.108, 313 284.167 L 313 297 315.500 297 L 318 297 318 283.500 C 318 271.076, 317.854 270, 316.167 270 C 315.158 270, 314.033 270.300, 313.667 270.667 M 329 270.706 C 328.175 271.008, 326.488 272.176, 325.250 273.302 C 323.259 275.113, 323 276.312, 323 283.720 C 323 291.274, 323.239 292.330, 325.455 294.545 C 327.720 296.811, 328.648 297, 337.531 297 C 346.833 297, 347.251 296.903, 350.077 294.077 C 352.709 291.445, 353 290.506, 353 284.642 C 353 272.678, 350.148 269.945, 337.800 270.079 C 333.785 270.122, 329.825 270.405, 329 270.706 M 363.091 271.090 C 358.724 272.836, 358.066 274.808, 358.032 286.250 C 358.002 296.344, 358.122 297, 360 297 C 361.864 297, 362 296.333, 362 287.200 C 362 280.911, 362.430 276.970, 363.200 276.200 C 364.813 274.587, 380.187 274.587, 381.800 276.200 C 382.570 276.970, 383 280.911, 383 287.200 C 383 296.987, 383.003 297, 385.500 297 C 387.978 297, 388 296.923, 388 288.149 C 388 272.781, 385.622 269.952, 372.800 270.063 C 368.785 270.098, 364.416 270.560, 363.091 271.090 M 403 272.470 C 403 274.870, 403.283 275, 408.500 275 L 414 275 414 286 C 414 296.333, 414.121 297, 416 297 C 417.878 297, 418 296.333, 418 286.052 L 418 275.105 423.250 274.802 C 427.733 274.544, 428.500 274.208, 428.500 272.500 C 428.500 270.619, 427.740 270.483, 415.750 270.220 L 403 269.940 403 272.470 M 436.337 271.136 C 433.464 272.586, 433.030 274.628, 433.014 286.750 L 433 297 435.500 297 C 437.864 297, 438 296.700, 438 291.500 L 438 286 447.300 286 C 453.200 286, 457.039 286.439, 457.800 287.200 C 458.460 287.860, 459 290.335, 459 292.700 C 459 296.620, 459.221 297, 461.500 297 C 463.723 297, 463.999 296.585, 463.994 293.250 C 463.990 291.188, 463.302 288.186, 462.465 286.579 C 461.420 284.577, 461.265 283.335, 461.971 282.629 C 463.830 280.770, 463.168 274.462, 460.898 272.405 C 459.164 270.834, 457.017 270.460, 448.648 270.272 C 442.818 270.141, 437.580 270.509, 436.337 271.136 M 468.162 281.089 C 468.489 291.812, 468.592 292.257, 471.306 294.589 C 473.845 296.771, 475.014 297, 483.601 297 C 492.343 297, 493.284 296.807, 495.545 294.545 C 497.855 292.236, 498 291.439, 498 281.045 C 498 270.667, 497.879 270, 496 270 C 494.135 270, 494 270.667, 494 279.845 C 494 292.171, 493.345 293, 483.606 293 C 473.151 293, 473 292.822, 473 280.465 L 473 270 470.412 270 L 467.823 270 468.162 281.089 M 505 272 C 502.619 274.381, 502.302 280.663, 504.418 283.559 C 505.627 285.214, 507.332 285.551, 515.974 285.845 L 526.112 286.191 525.806 289.345 L 525.500 292.500 514.250 292.783 C 503.825 293.045, 503 293.210, 503 295.033 C 503 296.876, 503.731 297, 514.566 297 C 520.927 297, 527.002 296.534, 528.066 295.965 C 529.611 295.138, 530 293.845, 530 289.536 C 530 281.736, 528.916 281, 517.429 281 L 508 281 508 278 L 508 275 519 275 L 530 275 530 272.500 L 530 270 518.500 270 C 508.333 270, 506.768 270.232, 505 272 M 535 272.500 C 535 274.864, 535.300 275, 540.500 275 L 546 275 546 286 C 546 296.333, 546.121 297, 548 297 C 549.879 297, 550 296.333, 550 286 L 550 275 555.500 275 C 560.700 275, 561 274.864, 561 272.500 L 561 270 548 270 L 535 270 535 272.500 M 104 272.616 C 104 272.955, 105.575 275.378, 107.500 278 C 110.905 282.639, 111.802 285.386, 110.229 286.359 C 109.804 286.621, 107.976 288.897, 106.166 291.418 L 102.876 296 105.688 295.979 C 107.816 295.962, 109.185 294.989, 111.315 291.979 C 112.863 289.790, 114.491 288, 114.932 288 C 115.373 288, 116.925 289.800, 118.381 292 C 120.290 294.884, 121.722 296, 123.514 296 C 124.881 296, 126 295.756, 126 295.457 C 126 295.158, 124.142 292.454, 121.872 289.446 L 117.743 283.978 120.622 279.937 C 126.848 271.194, 126.570 272, 123.358 272 C 121.070 272, 119.960 272.828, 118 276 C 116.640 278.200, 115.245 280, 114.900 280 C 114.555 280, 113.025 278.200, 111.500 276 C 109.589 273.243, 107.993 272, 106.364 272 C 105.064 272, 104 272.277, 104 272.616 M 75.200 276.200 C 74.540 276.860, 74 278.210, 74 279.200 C 74 280.819, 75.056 281, 84.500 281 C 93.944 281, 95 280.819, 95 279.200 C 95 278.210, 94.460 276.860, 93.800 276.200 C 92.187 274.587, 76.813 274.587, 75.200 276.200 M 186 279 L 186 283.072 195.644 282.786 C 203.541 282.552, 205.487 282.183, 206.389 280.750 C 207.190 279.476, 207.190 278.524, 206.389 277.250 C 205.487 275.817, 203.541 275.448, 195.644 275.214 L 186 274.928 186 279 M 328.200 276.200 C 327.527 276.873, 327 280.099, 327 283.545 C 327 291.733, 328.392 293, 337.394 293 C 347.212 293, 348 292.344, 348 284.165 C 348 280.237, 347.497 276.897, 346.800 276.200 C 345.187 274.587, 329.813 274.587, 328.200 276.200 M 438 278 L 438 281 448.031 281 C 456.063 281, 458.178 280.698, 458.643 279.487 C 459.937 276.116, 457.134 275, 447.378 275 L 438 275 438 278" stroke="none" fill="#0a0a0a" fill-rule="evenodd"/><path d="M 303.535 100.587 C 302.603 102.009, 302.068 103.401, 302.346 103.680 C 302.625 103.958, 303.572 102.794, 304.452 101.093 C 306.396 97.333, 305.861 97.037, 303.535 100.587 M 322.750 143.062 C 318.488 145.241, 315 147.249, 315 147.523 C 315 147.970, 330.900 140.320, 331.917 139.384 C 333.334 138.079, 329.447 139.639, 322.750 143.062 M 277.702 145.750 C 277.473 146.162, 276.022 148.750, 274.478 151.500 C 272.934 154.250, 272.135 156.050, 272.702 155.500 C 274.149 154.097, 279.306 145, 278.654 145 C 278.359 145, 277.931 145.338, 277.702 145.750 M 304.482 153.640 C 299.379 157.023, 297.581 158.808, 301.566 156.535 C 305.074 154.534, 309.754 151.055, 308.982 151.022 C 308.697 151.010, 306.672 152.188, 304.482 153.640 M 286.500 166.080 C 280.567 170.565, 279.769 171.831, 285.332 167.930 C 289.535 164.984, 291.822 162.937, 290.809 163.028 C 290.639 163.043, 288.700 164.417, 286.500 166.080 M 340.825 167.013 C 315.376 169.387, 293.198 177.647, 269 193.762 C 260.435 199.465, 254.054 204.877, 244 214.961 C 230.909 228.091, 224.064 236.397, 225.308 237.642 C 225.641 237.975, 228.971 237.013, 232.707 235.505 C 249.261 228.822, 268.971 223.348, 287 220.426 C 300.308 218.269, 330.838 217.478, 345.500 218.911 C 366.185 220.932, 391.110 227.091, 406.430 233.967 C 410.241 235.678, 413.958 236.948, 414.690 236.789 C 416.243 236.452, 381.255 173.465, 378.074 170.870 C 374.100 167.630, 355.199 165.672, 340.825 167.013 M 259.969 176.250 C 254.566 185.447, 254.804 185, 255.327 185 C 255.572 185, 257.689 181.738, 260.031 177.750 C 265.434 168.553, 265.196 169, 264.673 169 C 264.428 169, 262.311 172.262, 259.969 176.250 M 274.500 175.110 C 266.888 181.258, 265.665 182.965, 272.813 177.465 C 278.335 173.215, 280.835 170.917, 279.809 171.036 C 279.639 171.055, 277.250 172.889, 274.500 175.110 M 262 185.114 C 253.249 192.698, 250.574 194.552, 251.359 192.492 C 251.939 190.972, 251.841 190.776, 250.946 191.663 C 250.302 192.302, 250.084 193.326, 250.462 193.938 C 250.914 194.670, 252.406 194.048, 254.824 192.119 C 260.083 187.925, 266.588 182.083, 266 182.082 C 265.725 182.082, 263.925 183.446, 262 185.114 M 230.750 254.750 C 279.838 254.893, 360.163 254.893, 409.250 254.750 C 458.338 254.606, 418.175 254.489, 320 254.489 C 221.825 254.489, 181.663 254.606, 230.750 254.750 M 71.455 272.455 C 70.105 273.805, 69.020 275.717, 69.045 276.705 C 69.075 277.905, 69.491 277.561, 70.301 275.666 C 70.968 274.107, 72.635 272.210, 74.006 271.451 C 75.378 270.692, 75.917 270.055, 75.205 270.035 C 74.492 270.016, 72.805 271.105, 71.455 272.455 M 129.219 283.816 L 129 298.133 131.750 297.816 L 134.500 297.500 134.546 283.500 L 134.591 269.500 134.267 283.250 C 133.965 296.089, 133.815 297, 132 297 C 130.184 297, 130.036 296.094, 129.748 283.250 L 129.439 269.500 129.219 283.816 M 324.924 272.750 L 322.500 275.500 325 273.377 C 326.375 272.210, 328.175 271.008, 329 270.706 C 330.284 270.237, 330.274 270.147, 328.924 270.079 C 328.058 270.036, 326.258 271.238, 324.924 272.750 M 493.370 280 C 493.370 285.775, 493.535 288.137, 493.737 285.250 C 493.939 282.363, 493.939 277.637, 493.737 274.750 C 493.535 271.863, 493.370 274.225, 493.370 280 M 498.212 280.795 C 498.012 291.439, 497.852 292.238, 495.443 294.648 C 494.037 296.054, 493.447 297.018, 494.132 296.789 C 494.818 296.561, 496.209 295.261, 497.225 293.900 C 498.812 291.774, 499.027 289.886, 498.748 280.463 L 498.425 269.500 498.212 280.795 M 103 272.314 C 103 273.107, 103.787 274.351, 104.750 275.079 C 106.239 276.206, 106.313 276.194, 105.250 275.002 C 103.384 272.910, 103.726 272, 106.378 272 C 107.686 272, 109.522 273.012, 110.458 274.250 C 112.154 276.493, 112.155 276.492, 110.716 274 C 109.053 271.119, 103 269.796, 103 272.314 M 138.272 278 C 138.272 280.475, 138.467 281.488, 138.706 280.250 C 138.944 279.012, 138.944 276.988, 138.706 275.750 C 138.467 274.512, 138.272 275.525, 138.272 278 M 92.250 276.080 C 93.213 276.641, 94 277.736, 94 278.515 C 94 279.622, 91.769 280.001, 83.750 280.254 L 73.500 280.578 84.250 280.789 C 94.013 280.981, 95 280.835, 95 279.200 C 95 277.199, 93.167 274.984, 91.550 275.030 C 90.972 275.047, 91.287 275.519, 92.250 276.080 M 186 279 C 186 281.200, 186.178 283, 186.395 283 C 186.612 283, 186.962 281.200, 187.171 279 C 187.381 276.800, 187.203 275, 186.776 275 C 186.349 275, 186 276.800, 186 279 M 252.200 276.200 C 251.430 276.970, 251 280.911, 251 287.200 C 251 296.191, 250.842 297, 249.083 297 C 248.029 297, 246.938 296.539, 246.658 295.975 C 246.379 295.411, 246.266 295.524, 246.408 296.225 C 246.550 296.926, 247.754 297.500, 249.083 297.500 C 251.458 297.500, 251.505 297.325, 251.789 287.556 C 251.947 282.087, 252.565 277.024, 253.161 276.306 C 254.521 274.668, 253.811 274.589, 252.200 276.200 M 328.072 276.413 C 327.353 277.280, 327.038 280.273, 327.257 284.163 L 327.615 290.500 327.807 283.800 C 327.957 278.610, 328.394 276.870, 329.750 276.080 C 330.712 275.519, 330.993 275.047, 330.372 275.030 C 329.752 275.014, 328.717 275.636, 328.072 276.413 M 363.200 276.200 C 362.430 276.970, 362 280.911, 362 287.200 C 362 296.277, 361.855 297, 360.034 297 C 358.222 297, 358.041 296.157, 357.728 286.250 L 357.388 275.500 357.444 286.500 L 357.500 297.500 360 297.500 C 362.482 297.500, 362.502 297.427, 362.774 287.500 C 362.992 279.554, 363.391 277.243, 364.715 276.250 C 365.632 275.563, 365.936 275, 365.391 275 C 364.846 275, 363.860 275.540, 363.200 276.200 M 413 286.248 C 413.498 297.450, 413.511 297.500, 416 297.500 L 418.500 297.500 418.554 286 L 418.608 274.500 418.271 285.750 C 417.960 296.157, 417.787 297, 415.967 297 C 414.130 297, 414 296.272, 414 286 C 414 279.950, 413.663 274.999, 413.250 274.998 C 412.837 274.997, 412.725 280.059, 413 286.248 M 438 278 C 438 279.650, 438.174 281, 438.387 281 C 438.599 281, 438.971 279.650, 439.213 278 C 439.455 276.350, 439.282 275, 438.827 275 C 438.372 275, 438 276.350, 438 278 M 545 286.248 C 545.498 297.450, 545.511 297.500, 548 297.500 C 550.489 297.500, 550.502 297.450, 551 286.248 C 551.275 280.059, 551.163 274.997, 550.750 274.998 C 550.337 274.999, 550 279.950, 550 286 C 550 296.333, 549.879 297, 548 297 C 546.121 297, 546 296.333, 546 286 C 546 279.950, 545.663 274.999, 545.250 274.998 C 544.837 274.997, 544.725 280.059, 545 286.248 M 99 286.500 C 99 296.244, 98.860 297, 97.050 297 C 95.388 297, 95.042 296.151, 94.710 291.250 L 94.321 285.500 94.410 291.500 C 94.497 297.277, 94.602 297.512, 97.250 297.816 L 100 298.133 100 287.066 C 100 280.980, 99.775 276, 99.500 276 C 99.225 276, 99 280.725, 99 286.500 M 143.336 278 C 143.497 280.459, 143.645 280.501, 152.253 280.562 L 161.005 280.624 152.567 280.274 C 144.807 279.952, 144.091 279.746, 143.651 277.712 C 143.243 275.829, 143.197 275.871, 143.336 278 M 318.252 279.500 C 318.263 281.700, 318.468 282.482, 318.707 281.238 C 318.946 279.994, 318.937 278.194, 318.687 277.238 C 318.437 276.282, 318.241 277.300, 318.252 279.500 M 322.343 283.500 C 322.346 287.900, 322.522 289.576, 322.733 287.224 C 322.945 284.872, 322.942 281.272, 322.727 279.224 C 322.512 277.176, 322.339 279.100, 322.343 283.500 M 285.998 280.250 C 285.999 280.663, 290.163 280.928, 295.250 280.840 C 304.655 280.677, 303.534 280.281, 292.248 279.778 C 288.810 279.625, 285.997 279.837, 285.998 280.250 M 226.287 280.740 C 229.469 280.939, 234.419 280.937, 237.287 280.736 C 240.154 280.535, 237.550 280.372, 231.500 280.374 C 225.450 280.376, 223.104 280.541, 226.287 280.740 M 512.250 280.735 C 514.862 280.941, 519.138 280.941, 521.750 280.735 C 524.362 280.529, 522.225 280.360, 517 280.360 C 511.775 280.360, 509.637 280.529, 512.250 280.735 M 527.984 281.969 C 528.873 282.531, 529.717 285.232, 530.087 288.704 L 530.706 294.500 530.853 289.684 C 531.009 284.566, 529.715 280.990, 527.715 281.015 C 526.947 281.025, 527.046 281.376, 527.984 281.969 M 161.136 288.750 L 161 292 149.434 292 L 137.867 292 138.184 294.750 L 138.500 297.500 150 297.548 L 161.500 297.595 150.250 297.266 C 139.839 296.961, 139 296.790, 139 294.968 C 139 293.130, 139.726 293, 150.031 293 C 161.833 293, 162.635 292.645, 161.715 287.823 C 161.378 286.054, 161.240 286.276, 161.136 288.750 M 166.252 289.500 C 166.263 291.700, 166.468 292.482, 166.707 291.238 C 166.946 289.994, 166.937 288.194, 166.687 287.238 C 166.437 286.282, 166.241 287.300, 166.252 289.500 M 447.500 286.944 L 457.500 287.500 458 292.500 C 458.463 297.134, 458.702 297.509, 461.262 297.622 C 463.792 297.733, 463.813 297.707, 461.512 297.305 C 459.294 296.918, 459 296.372, 459 292.634 C 459 290.305, 458.460 287.860, 457.800 287.200 C 457.004 286.404, 453.382 286.065, 447.050 286.194 L 437.500 286.387 447.500 286.944 M 525.136 288.717 L 525 291.934 513.750 292.253 L 502.500 292.572 513.781 292.786 C 525.887 293.016, 526.645 292.700, 525.715 287.823 C 525.375 286.036, 525.241 286.243, 525.136 288.717 M 112.872 289.750 C 111.624 291.341, 111.661 291.374, 113.274 290.107 C 114.250 289.342, 115.168 288.892, 115.315 289.107 C 119.611 295.441, 121.337 297, 124.051 297 C 125.673 297, 127 296.628, 127 296.173 C 127 295.718, 125.687 295.539, 124.081 295.775 C 121.569 296.144, 120.785 295.633, 118.449 292.102 C 115.404 287.501, 114.827 287.258, 112.872 289.750 M 186.168 292.184 C 186.014 296.474, 185.769 296.902, 183.250 297.284 L 180.500 297.700 183.281 297.850 C 186.549 298.026, 187.282 296.648, 186.735 291.355 C 186.351 287.641, 186.330 287.671, 186.168 292.184 M 483.500 292 L 475.500 292.633 483.191 292.817 C 487.450 292.918, 491.158 292.554, 491.500 292 C 491.840 291.450, 491.979 291.083, 491.809 291.183 C 491.639 291.284, 487.900 291.652, 483.500 292 M 109.768 293.921 C 109.028 294.978, 106.866 296.030, 104.961 296.261 L 101.500 296.680 105.135 296.840 C 108.008 296.966, 109.113 296.476, 110.408 294.500 C 112.317 291.586, 111.758 291.080, 109.768 293.921 M 226.287 292.740 C 229.469 292.939, 234.419 292.937, 237.287 292.736 C 240.154 292.535, 237.550 292.372, 231.500 292.374 C 225.450 292.376, 223.104 292.541, 226.287 292.740 M 286.789 292.741 C 290.248 292.937, 295.648 292.936, 298.789 292.738 C 301.930 292.540, 299.100 292.380, 292.500 292.382 C 285.900 292.384, 283.330 292.546, 286.789 292.741 M 333.776 292.733 C 336.128 292.945, 339.728 292.942, 341.776 292.727 C 343.824 292.512, 341.900 292.339, 337.500 292.343 C 333.100 292.346, 331.424 292.522, 333.776 292.733 M 515 297 L 502.500 297.595 514.691 297.797 C 521.967 297.918, 527.131 297.597, 527.500 297 C 527.840 296.450, 527.979 296.091, 527.809 296.203 C 527.639 296.314, 521.875 296.673, 515 297 M 222.250 297.742 C 225.963 297.934, 232.037 297.934, 235.750 297.742 C 239.463 297.549, 236.425 297.392, 229 297.392 C 221.575 297.392, 218.537 297.549, 222.250 297.742 M 286.789 297.741 C 290.248 297.937, 295.648 297.936, 298.789 297.738 C 301.930 297.540, 299.100 297.380, 292.500 297.382 C 285.900 297.384, 283.330 297.546, 286.789 297.741 M 333.776 297.733 C 336.128 297.945, 339.728 297.942, 341.776 297.727 C 343.824 297.512, 341.900 297.339, 337.500 297.343 C 333.100 297.346, 331.424 297.522, 333.776 297.733 M 479.280 297.736 C 481.909 297.943, 485.959 297.940, 488.280 297.731 C 490.601 297.521, 488.450 297.352, 483.500 297.355 C 478.550 297.358, 476.651 297.530, 479.280 297.736" stroke="none" fill="#86b227" fill-rule="evenodd"/></svg>